<svg xmlns="http://www.w3.org/2000/svg" type="color-fill-current" version="1.1" viewBox="0 0 20 20" x="0px" y="0px" class="ScSvg-sc-1hrsqw6-1 hdNNzQ"><g><path fill-rule="evenodd" d="M8.16 12.676V7.323L12.863 10 8.16 12.676zm10.464-7.037a2.26 2.26 0 00-1.592-1.602C15.628 3.659 10 3.659 10 3.659s-5.628 0-7.032.378a2.261 2.261 0 00-1.591 1.602C1 7.052 1 9.999 1 9.999s0 2.948.377 4.36c.207.78.817 1.394 1.59 1.603 1.405.38 7.033.38 7.033.38s5.628 0 7.032-.38a2.262 2.262 0 001.592-1.602C19 12.947 19 10 19 10s0-2.948-.376-4.361z" clip-rule="evenodd"></path></g></svg>