<svg xmlns="http://www.w3.org/2000/svg" version="1.1" viewBox="0 0 20 20" x="0px" y="0px" aria-hidden="true" focusable="false" class="ScIconSVG-sc-1q25cff-1 dSicFr"><g><path d="M5.744 8.962a1.93 1.93 0 013.598-.395l.105.21-.894.447-.105-.21a.93.93 0 00-1.734.19l-.007.028a3.166 3.166 0 000 1.536l.007.028a.93.93 0 001.734.19l.105-.21.894.448-.105.21a1.93 1.93 0 01-3.598-.396l-.007-.027a4.166 4.166 0 010-2.021l.007-.028zM10.744 8.962a1.93 1.93 0 013.598-.395l.105.21-.894.447-.105-.21a.93.93 0 00-1.734.19l-.007.028a3.167 3.167 0 000 1.536l.007.028a.93.93 0 001.734.19l.105-.21.894.448-.105.21a1.93 1.93 0 01-3.598-.396l-.007-.027a4.165 4.165 0 010-2.021l.007-.028z"/><path fill-rule="evenodd" d="M2 5a2 2 0 012-2h12a2 2 0 012 2v10a2 2 0 01-2 2H4a2 2 0 01-2-2V5zm2 0h12v10H4V5z" clip-rule="evenodd"/></g></svg>